<?xml version="1.0" encoding="UTF-8" standalone="no"?>
<!-- Created with Inkscape (http://www.inkscape.org/) -->

<svg
   width="276.5499mm"
   height="262.039mm"
   viewBox="0 0 276.5499 262.039"
   version="1.1"
   id="svg657"
   inkscape:version="1.2.2 (b0a8486541, 2022-12-01)"
   sodipodi:docname="logo-o-tomatoes.svg"
   xmlns:inkscape="http://www.inkscape.org/namespaces/inkscape"
   xmlns:sodipodi="http://sodipodi.sourceforge.net/DTD/sodipodi-0.dtd"
   xmlns="http://www.w3.org/2000/svg"
   xmlns:svg="http://www.w3.org/2000/svg">
  <sodipodi:namedview
     id="namedview659"
     pagecolor="#ffffff"
     bordercolor="#666666"
     borderopacity="1.0"
     inkscape:showpageshadow="2"
     inkscape:pageopacity="0.0"
     inkscape:pagecheckerboard="0"
     inkscape:deskcolor="#d1d1d1"
     inkscape:document-units="mm"
     showgrid="false"
     inkscape:zoom="0.2102413"
     inkscape:cx="-1403.1496"
     inkscape:cy="506.56079"
     inkscape:current-layer="layer1" />
  <defs
     id="defs654" />
  <g
     inkscape:label="Layer 1"
     inkscape:groupmode="layer"
     id="layer1"
     transform="translate(15.821089,-15.820442)">
    <ellipse
       style="fill:#ffffff;fill-opacity:1;stroke-width:1.3;stroke-linecap:round;paint-order:stroke fill markers;stop-color:#000000"
       id="path3124"
       cx="120.70647"
       cy="146.66835"
       rx="121.44279"
       ry="117.03814" />
    <path
       d="m 51.827827,142.07294 c -12.808361,-5.17172 -20.372619,-16.21751 -14.451805,-28.07068 4.462824,-8.89331 17.529047,-12.50229 27.514905,-8.6034 11.970544,4.65614 13.871692,17.06183 20.005257,22.22703 5.284472,4.44679 12.502291,4.99456 17.229356,1.94965 3.49608,-2.2556 4.63997,-7.20179 3.33509,-11.72901 -1.74003,-6.00965 -6.380004,-9.74728 -10.891194,-13.43682 C 86.529969,97.884605 75.18421,92.261863 82.050979,74.428369 87.673734,59.815448 104.16851,59.299882 104.16851,59.299882 c 6.55716,-0.805627 12.42173,1.289258 17.2068,5.50999 6.39604,5.703439 7.63652,13.356127 6.55716,21.495578 -0.96729,7.427302 -3.60898,13.9524 -4.97839,21.31532 -1.6111,8.55503 2.98051,17.17445 11.68064,17.50634 11.42292,0.48365 14.8546,-8.34568 16.26274,-13.92005 2.0461,-8.15237 4.73671,-15.72449 12.29294,-20.482264 10.85898,-6.847203 25.93735,-5.348859 32.93617,7.797784 5.52616,10.40796 3.7538,24.72608 -4.73671,32.5464 -3.8023,3.51211 -8.39391,4.73658 -13.34023,4.78494 -7.10492,0.0543 -14.21012,-0.12226 -20.806,3.19 -4.49488,2.27176 -6.44439,5.94513 -6.44439,10.89119 0,4.81727 2.51331,7.95903 6.57332,10.00501 7.65282,3.85079 16.0951,4.64011 24.36022,6.09022 11.98671,2.09434 22.52821,6.31561 29.29173,17.43884 l 0.16167,0.32197 c 7.76558,13.16282 -0.32197,32.1258 -15.62789,32.9249 -33.99149,1.78826 -40.93379,-37.11221 -54.27567,-36.83505 -5.68714,0.10869 -10.16599,6.05774 -8.20045,12.98565 1.12895,3.80216 4.09221,9.39271 5.97719,12.85673 6.67005,12.22841 -3.18999,26.05827 -14.72568,27.22484 -19.17233,1.94938 -27.169958,-9.1835 -26.670558,-20.56118 0.483643,-12.7763 11.390728,-25.83763 0.321972,-31.39122 -11.648311,-5.83224 -21.116955,16.9507 -32.269119,22.02732 -10.085711,4.59174 -24.094226,0.96728 -29.071114,-10.16614 -3.496223,-7.87847 -2.86776,-23.03739 12.711774,-28.81339 9.731131,-3.60897 31.402373,4.72067 32.51407,-5.8484 C 83.159963,146.03133 59.09903,145.0002 51.855547,142.08394 Z m 72.391053,133.2865 c 75.40377,0 134.00993,-44.18819 134.00993,-128.52086 0,-69.192904 -38.81188,-111.360806 -94.49717,-124.267531 C 131.406,16.223244 109.6785,17.254389 79.941984,23.700005 26.434976,37.87778 -13.321089,79.585004 -13.321089,146.78981 c 0,84.33253 62.14897,128.52085 137.539969,128.52085 z"
       style="fill:#fa320a;fill-opacity:1;fill-rule:evenodd;stroke:#ffffff;stroke-width:5;stroke-dasharray:none;stroke-opacity:1;paint-order:stroke fill markers"
       id="path652" />
  </g>
</svg>
