<?xml version="1.0" encoding="UTF-8" standalone="no"?>
<svg
   version="1.1"
   preserveAspectRatio="xMidYMid"
   viewBox="0 0 488.78107 488.78109"
   width="488.78107"
   height="488.78107"
   id="svg2165"
   sodipodi:docname="IMDB_Logo_2016.svg"
   inkscape:version="1.2.2 (b0a8486541, 2022-12-01)"
   xmlns:inkscape="http://www.inkscape.org/namespaces/inkscape"
   xmlns:sodipodi="http://sodipodi.sourceforge.net/DTD/sodipodi-0.dtd"
   xmlns:xlink="http://www.w3.org/1999/xlink"
   xmlns="http://www.w3.org/2000/svg"
   xmlns:svg="http://www.w3.org/2000/svg">
  <sodipodi:namedview
     id="namedview2167"
     pagecolor="#ffffff"
     bordercolor="#666666"
     borderopacity="1.0"
     inkscape:showpageshadow="2"
     inkscape:pageopacity="0.0"
     inkscape:pagecheckerboard="0"
     inkscape:deskcolor="#d1d1d1"
     showgrid="false"
     inkscape:zoom="0.81427047"
     inkscape:cx="-65.702984"
     inkscape:cy="245.00459"
     inkscape:current-layer="svg2165" />
  <defs
     id="defs2119">
    <path
       d="M 575,24.91 C 573.44,12.15 563.97,1.98 551.91,0 499.05,0 76.18,0 23.32,0 10.11,2.17 0,14.16 0,28.61 c 0,23.23 0,209.03 0,232.25 0,16 12.37,28.97 27.64,28.97 51.99,0 467.96,0 519.95,0 14.06,0 25.67,-11.01 27.41,-25.26 0,-47.93 0,-215.7 0,-239.66 z"
       id="d1pwhf9wy2" />
    <path
       d="m 69.35,58.24 h 45.63 V 233.89 H 69.35 Z"
       id="g5jjnq26yS" />
    <path
       d="m 201.2,139.15 c -3.92,-26.77 -6.1,-41.65 -6.53,-44.62 -1.91,-14.33 -3.73,-26.8 -5.47,-37.44 -3.95,0 -23.66,0 -59.16,0 v 175.65 h 39.97 l 0.14,-115.98 16.82,115.98 h 28.47 l 15.95,-118.56 0.15,118.56 h 39.84 V 57.09 h -59.61 z"
       id="i3Prh1JpXt" />
    <path
       d="m 346.71,93.63 c 0.5,2.24 0.76,7.32 0.76,15.26 0,6.81 0,61.29 0,68.1 0,11.69 -0.76,18.85 -2.27,21.49 -1.52,2.64 -5.56,3.95 -12.11,3.95 0,-11.53 0,-103.77 0,-115.3 4.97,0 8.36,0.53 10.16,1.57 1.8,1.05 2.96,2.69 3.46,4.93 z m 20.61,137.32 c 5.43,-1.19 9.99,-3.29 13.69,-6.28 3.69,-3 6.28,-7.15 7.76,-12.46 1.49,-5.3 2.37,-15.83 2.37,-31.58 0,-6.16 0,-55.51 0,-61.68 0,-16.62 -0.65,-27.76 -1.66,-33.42 -1.02,-5.67 -3.55,-10.82 -7.6,-15.44 -4.06,-4.62 -9.98,-7.94 -17.76,-9.96 -7.79,-2.02 -20.49,-3.04 -42.58,-3.04 -2.27,0 -13.61,0 -34.04,0 v 175.65 h 55.28 c 12.74,-0.4 20.92,-0.99 24.54,-1.79 z"
       id="a4ov9rRGQm" />
    <path
       d="m 464.76,204.7 c -0.84,2.23 -4.52,3.36 -7.3,3.36 -2.72,0 -4.53,-1.08 -5.45,-3.25 -0.92,-2.16 -1.37,-7.09 -1.37,-14.81 0,-4.64 0,-41.78 0,-46.42 0,-8 0.4,-12.99 1.21,-14.98 0.8,-1.97 2.56,-2.97 5.28,-2.97 2.78,0 6.51,1.13 7.47,3.4 0.95,2.27 1.43,7.12 1.43,14.55 0,3 0,18 0,45.01 -0.29,9.25 -0.71,14.62 -1.27,16.11 z m -58.08,26.51 h 41.08 c 1.71,-6.71 2.65,-10.44 2.84,-11.19 3.72,4.5 7.81,7.88 12.3,10.12 4.47,2.25 11.16,3.37 16.34,3.37 7.21,0 13.43,-1.89 18.68,-5.68 5.24,-3.78 8.58,-8.26 10,-13.41 1.42,-5.16 2.13,-13 2.13,-23.54 0,-4.93 0,-44.35 0,-49.28 0,-10.6 -0.24,-17.52 -0.71,-20.77 -0.47,-3.25 -1.87,-6.56 -4.2,-9.95 -2.33,-3.39 -5.72,-6.02 -10.16,-7.9 -4.44,-1.88 -9.68,-2.82 -15.72,-2.82 -5.25,0 -11.97,1.05 -16.45,3.12 -4.47,2.07 -8.53,5.21 -12.17,9.42 0,-3.81 0,-22.85 0,-57.14 h -43.96 z"
       id="fk968BpsX" />
    <mask
       maskUnits="userSpaceOnUse"
       id="mask2717">
      <circle
         style="fill:#ffffff;fill-opacity:1;stroke-width:4.91339;stroke-linecap:round;paint-order:stroke fill markers;stop-color:#000000"
         id="circle2719"
         cx="287.5"
         cy="144.91499"
         r="244.39053" />
    </mask>
  </defs>
  <g
     id="g2163"
     mask="url(#mask2717)"
     style="display:inline"
     transform="translate(-43.109467,99.47554)">
    <g
       id="g2161">
      <g
         id="g2127">
        <use
           xlink:href="#d1pwhf9wy2"
           opacity="1"
           fill="#f6c700"
           fill-opacity="1"
           id="use2121" />
        <g
           id="g2125">
          <use
             xlink:href="#d1pwhf9wy2"
             opacity="1"
             fill-opacity="0"
             stroke="#000000"
             stroke-width="1"
             stroke-opacity="0"
             id="use2123" />
        </g>
      </g>
      <g
         id="g2135">
        <use
           xlink:href="#g5jjnq26yS"
           opacity="1"
           fill="#000000"
           fill-opacity="1"
           id="use2129" />
        <g
           id="g2133">
          <use
             xlink:href="#g5jjnq26yS"
             opacity="1"
             fill-opacity="0"
             stroke="#000000"
             stroke-width="1"
             stroke-opacity="0"
             id="use2131" />
        </g>
      </g>
      <g
         id="g2143">
        <use
           xlink:href="#i3Prh1JpXt"
           opacity="1"
           fill="#000000"
           fill-opacity="1"
           id="use2137" />
        <g
           id="g2141">
          <use
             xlink:href="#i3Prh1JpXt"
             opacity="1"
             fill-opacity="0"
             stroke="#000000"
             stroke-width="1"
             stroke-opacity="0"
             id="use2139" />
        </g>
      </g>
      <g
         id="g2151">
        <use
           xlink:href="#a4ov9rRGQm"
           opacity="1"
           fill="#000000"
           fill-opacity="1"
           id="use2145" />
        <g
           id="g2149">
          <use
             xlink:href="#a4ov9rRGQm"
             opacity="1"
             fill-opacity="0"
             stroke="#000000"
             stroke-width="1"
             stroke-opacity="0"
             id="use2147" />
        </g>
      </g>
      <g
         id="g2159">
        <use
           xlink:href="#fk968BpsX"
           opacity="1"
           fill="#000000"
           fill-opacity="1"
           id="use2153" />
        <g
           id="g2157">
          <use
             xlink:href="#fk968BpsX"
             opacity="1"
             fill-opacity="0"
             stroke="#000000"
             stroke-width="1"
             stroke-opacity="0"
             id="use2155" />
        </g>
      </g>
    </g>
  </g>
  <g
     inkscape:groupmode="layer"
     id="layer1"
     inkscape:label="Layer 1"
     style="opacity:1"
     transform="translate(-43.109467,99.47554)" />
</svg>
