<?xml version="1.0" encoding="UTF-8" standalone="no"?>
<svg
   width="40"
   height="40"
   viewBox="0 0 40 40"
   version="1.1"
   id="svg1654"
   sodipodi:docname="logo-m-metacritic.svg"
   inkscape:version="1.2.2 (b0a8486541, 2022-12-01)"
   xmlns:inkscape="http://www.inkscape.org/namespaces/inkscape"
   xmlns:sodipodi="http://sodipodi.sourceforge.net/DTD/sodipodi-0.dtd"
   xmlns="http://www.w3.org/2000/svg"
   xmlns:svg="http://www.w3.org/2000/svg"
   xmlns:rdf="http://www.w3.org/1999/02/22-rdf-syntax-ns#"
   xmlns:cc="http://creativecommons.org/ns#"
   xmlns:dc="http://purl.org/dc/elements/1.1/">
  <defs
     id="defs1658" />
  <sodipodi:namedview
     id="namedview1656"
     pagecolor="#ffffff"
     bordercolor="#666666"
     borderopacity="1.0"
     inkscape:showpageshadow="2"
     inkscape:pageopacity="0.0"
     inkscape:pagecheckerboard="0"
     inkscape:deskcolor="#d1d1d1"
     showgrid="false"
     inkscape:zoom="5.9"
     inkscape:cx="45.932203"
     inkscape:cy="33.644068"
     inkscape:current-layer="svg1654" />
  <title
     id="title1644">Metacritic logo</title>
  <path
     d="m 36.978,19.490008 a 17.49,17.49 0 1 1 0,-0.021"
     fill="#000000"
     id="path1646" />
  <path
     d="m 17.209,32.937008 3.41,-3.41 -6.567,-6.567 c -0.276,-0.276 -0.576,-0.622 -0.737,-1.014 -0.369,-0.783 -0.53,-2.004 0.369,-2.903 1.106,-1.106 2.58,-0.645 4.009,0.784 l 6.313,6.313 3.41,-3.41 -6.59,-6.59 c -0.276,-0.276 -0.599,-0.691 -0.76,-1.037 -0.438,-0.898 -0.415,-2.027 0.392,-2.834 1.129,-1.129 2.603,-0.714 4.24,0.922 l 6.128,6.129 3.41,-3.41 L 27.6,9.2740081 c -3.364,-3.364 -6.52,-3.249 -8.686,-1.083 -0.83,0.83 -1.337,1.705 -1.59,2.6959999 a 6.71,6.71 0 0 0 -0.092,2.81 l -0.046,0.047 c -1.66,-0.691 -3.549,-0.277 -5,1.175 -1.936,1.935 -1.866,3.986 -1.636,5.184 l -0.07,0.07 -1.681,-1.36 -2.95,2.949 c 1.037,0.945 2.282,2.097 3.687,3.502 z"
     fill="#f2f2f2"
     id="path1648" />
  <path
     d="M 19.982,8.1129581e-6 A 20,20 0 1 0 40,20.000008 v -0.024 A 20,20 0 0 0 19.982,8.1129581e-6 Z M 19.891,4.2740081 A 15.665,15.665 0 0 1 35.57,19.921008 v 0.018 A 15.665,15.665 0 1 1 19.89,4.2740081 Z"
     fill="#ffbd3f"
     id="path1650" />
  <metadata
     id="metadata1932">
    <rdf:RDF>
      <cc:Work
         rdf:about="">
        <dc:title>Metacritic logo</dc:title>
      </cc:Work>
    </rdf:RDF>
  </metadata>
</svg>
